<svg width="210" height="33" viewBox="0 0 210 33" fill="none" xmlns="http://www.w3.org/2000/svg">
<path d="M50.188 0V16.3534L33.4962 0L0 32.7068H16.6917L33.3835 16.3534L50.188 32.7068H64.2857V0H50.188Z" fill="#FF7246"/>
<path d="M100.602 32.4812V15.5639L95.1881 27.5188H90.4512L85.0377 15.5639V32.4812H76.1279V0.225563H85.8272L92.8197 15.4511L99.8121 0.225563H109.399V32.4812H100.602Z" fill="white"/>
<path d="M115.15 32.4812V0.225563H124.06V19.8496L136.015 0.225563H144.248V32.4812H135.338V12.9699L123.609 32.594L115.15 32.4812Z" fill="white"/>
<path d="M150.113 32.4812V0.225563H158.91V12.0677H160.714L169.06 0.225563H178.759L167.368 15.7895L179.774 32.4812H169.173L160.489 20.188H159.023V32.4812H150.113Z" fill="white"/>
<path d="M179.549 16.015C179.549 14.0977 179.887 12.0677 180.677 10.2632C181.466 8.34587 182.481 6.65414 183.947 5.07519C185.413 3.49624 187.105 2.25564 189.135 1.35338C191.165 0.451128 193.534 0 196.015 0C199.06 0 201.767 0.676692 204.135 1.91729C206.504 3.15789 208.083 4.96241 209.323 6.99248L202.669 11.8421C202.218 10.7143 201.767 9.92481 200.977 9.3609C200.188 8.79699 199.398 8.45865 198.609 8.1203C197.707 7.89474 196.917 7.78195 196.128 7.78195C194.887 7.78195 193.759 8.00752 192.857 8.57143C191.955 9.13534 191.165 9.69925 190.601 10.4887C190.038 11.2782 189.586 12.1805 189.248 13.1955C189.023 14.2105 188.797 15.2256 188.797 16.2406C188.797 17.3684 188.91 18.3835 189.361 19.5113C189.699 20.5263 190.15 21.4286 190.827 22.218C191.504 23.0075 192.18 23.6842 193.195 24.1353C194.098 24.5865 195.113 24.812 196.353 24.812C197.143 24.812 198.045 24.6992 198.835 24.3609C199.624 24.1353 200.526 23.6842 201.203 23.1203C201.88 22.5564 202.444 21.7669 202.782 20.7519L210 25.0376C209.323 26.6165 208.308 27.9699 206.842 29.0977C205.376 30.2256 203.684 31.015 201.767 31.6917C199.85 32.2556 198.045 32.594 196.128 32.594C193.759 32.594 191.504 32.1429 189.586 31.1278C187.556 30.2256 185.865 28.8722 184.398 27.2932C182.932 25.7143 181.804 23.9098 181.015 21.9925C179.887 20.0752 179.549 18.1579 179.549 16.015Z" fill="white"/>
<path d="M36.0903 27.0677H30.4512V32.7068H36.0903V27.0677Z" fill="#FF7246"/>
</svg>
