<svg width="19" height="19" viewBox="0 0 19 19" fill="none" xmlns="http://www.w3.org/2000/svg">
<path d="M18.9145 15.1446L18.82 14.8596C18.596 14.1939 17.8618 13.4996 17.1874 13.3166L14.6912 12.6347C14.0142 12.4506 13.0486 12.6982 12.5534 13.1934L11.6499 14.0969C8.36672 13.2097 5.79216 10.6351 4.90618 7.35247L5.80964 6.44901C6.30492 5.95374 6.55251 4.9894 6.36835 4.31247L5.68768 1.81504C5.50351 1.13935 4.80791 0.405203 4.14345 0.183688L3.8585 0.0878832C3.19276 -0.133631 2.24331 0.0903918 1.74808 0.585624L0.396693 1.93824C0.155269 2.17839 0.000969679 2.86528 0.000969679 2.86779C-0.0462958 7.15831 1.63607 11.292 4.67101 14.327C7.69851 17.3545 11.8167 19.0344 16.0948 18.9983C16.1172 18.9983 16.824 18.8465 17.0654 18.6063L18.4168 17.2549C18.912 16.7597 19.136 15.8103 18.9145 15.1446Z" fill="#FF7246"/>
</svg>
