<svg width="19" height="19" viewBox="0 0 19 19" fill="none" xmlns="http://www.w3.org/2000/svg">
<g clip-path="url(#clip0_1_16)">
<path d="M18.9145 15.1446L18.8199 14.8597C18.5959 14.194 17.8618 13.4996 17.1873 13.3167L14.6911 12.6348C14.0142 12.4506 13.0486 12.6983 12.5533 13.1935L11.6499 14.0969C8.36669 13.2097 5.79213 10.6351 4.90615 7.35252L5.80961 6.44907C6.30488 5.95379 6.55248 4.98945 6.36832 4.31252L5.68765 1.8151C5.50348 1.1394 4.80788 0.405256 4.14342 0.183742L3.85847 0.0879367C3.19273 -0.133578 2.24328 0.0904452 1.74805 0.585678L0.396663 1.9383C0.155239 2.17845 0.000939162 2.86533 0.000939162 2.86784C-0.0463263 7.15837 1.63604 11.2921 4.67098 14.3271C7.69848 17.3546 11.8167 19.0345 16.0948 18.9984C16.1171 18.9984 16.8239 18.8466 17.0654 18.6064L18.4167 17.255C18.912 16.7598 19.136 15.8104 18.9145 15.1446Z" fill="#D5A235"/>
</g>
<defs>
<clipPath id="clip0_1_16">
<rect width="19" height="19" fill="white"/>
</clipPath>
</defs>
</svg>
